<svg width="48" height="48" viewBox="0 0 48 48" fill="none" xmlns="http://www.w3.org/2000/svg">
<path d="M31.501 23.9998C31.501 25.9889 30.7108 27.8965 29.3043 29.3031C27.8978 30.7096 25.9901 31.4998 24.001 31.4998C22.0119 31.4998 20.1042 30.7096 18.6977 29.3031C17.2912 27.8965 16.501 25.9889 16.501 23.9998C16.501 23.5723 16.546 23.1548 16.6235 22.7498H14.001V32.7423C14.001 33.4373 14.5635 33.9998 15.2585 33.9998H32.746C33.0791 33.9991 33.3983 33.8663 33.6336 33.6306C33.8689 33.3948 34.001 33.0753 34.001 32.7423V22.7498H31.3785C31.456 23.1548 31.501 23.5723 31.501 23.9998ZM24.001 28.9998C24.6578 28.9996 25.3081 28.8701 25.9148 28.6186C26.5215 28.3671 27.0728 27.9986 27.537 27.534C28.0013 27.0695 28.3696 26.5181 28.6208 25.9112C28.872 25.3044 29.0012 24.654 29.001 23.9973C29.0008 23.3405 28.8713 22.6902 28.6198 22.0835C28.3683 21.4767 27.9998 20.9255 27.5353 20.4612C27.0708 19.9969 26.5193 19.6287 25.9125 19.3775C25.3056 19.1263 24.6553 18.9971 23.9985 18.9973C22.6721 18.9976 21.4001 19.5248 20.4624 20.463C19.5248 21.4011 18.9982 22.6733 18.9985 23.9998C18.9988 25.3262 19.5261 26.5981 20.4642 27.5358C21.4024 28.4735 22.6746 29.0001 24.001 28.9998ZM30.001 18.7498H32.9985C33.1976 18.7498 33.3887 18.6708 33.5297 18.5302C33.6708 18.3897 33.7503 18.1989 33.751 17.9998V15.0023C33.751 14.8027 33.6717 14.6113 33.5306 14.4702C33.3895 14.329 33.1981 14.2498 32.9985 14.2498H30.001C29.8014 14.2498 29.61 14.329 29.4689 14.4702C29.3278 14.6113 29.2485 14.8027 29.2485 15.0023V17.9998C29.251 18.4123 29.5885 18.7498 30.001 18.7498ZM24.001 -0.000244141C17.6358 -0.000244141 11.5313 2.52832 7.03042 7.02919C2.52954 11.5301 0.000976563 17.6346 0.000976562 23.9998C0.000976563 30.365 2.52954 36.4694 7.03042 40.9703C11.5313 45.4712 17.6358 47.9998 24.001 47.9998C27.1527 47.9998 30.2736 47.379 33.1854 46.1729C36.0972 44.9667 38.743 43.1989 40.9716 40.9703C43.2002 38.7417 44.968 36.096 46.1741 33.1842C47.3802 30.2723 48.001 27.1515 48.001 23.9998C48.001 20.848 47.3802 17.7272 46.1741 14.8154C44.968 11.9035 43.2002 9.2578 40.9716 7.02919C38.743 4.80059 36.0972 3.03276 33.1854 1.82665C30.2736 0.620534 27.1527 -0.000244141 24.001 -0.000244141ZM36.501 33.7223C36.501 35.2498 35.251 36.4998 33.7235 36.4998H14.2785C12.751 36.4998 11.501 35.2498 11.501 33.7223V14.2773C11.501 12.7498 12.751 11.4998 14.2785 11.4998H33.7235C35.251 11.4998 36.501 12.7498 36.501 14.2773V33.7223Z" fill="#CD06FF"/>
</svg>
