<?xml version="1.0" encoding="utf-8"?>
<!-- Generator: Adobe Illustrator 24.3.0, SVG Export Plug-In . SVG Version: 6.00 Build 0)  -->
<svg version="1.1" id="Слой_1" xmlns="http://www.w3.org/2000/svg" xmlns:xlink="http://www.w3.org/1999/xlink" x="0px" y="0px"
	 viewBox="0 0 50 50" style="enable-background:new 0 0 50 50;" xml:space="preserve">
<style type="text/css">
	.st0{clip-path:url(#SVGID_2_);}
	.st1{fill-rule:evenodd;clip-rule:evenodd;fill:#EADEED;}
</style>
<g>
	<defs>
		<rect id="SVGID_1_" y="0" width="50" height="50"/>
	</defs>
	<clipPath id="SVGID_2_">
		<use xlink:href="#SVGID_1_"  style="overflow:visible;"/>
	</clipPath>
	<g class="st0">
		<path class="st1" d="M44.7,9.7C48.2,14,50,19.4,50,25c0,13.8-11.2,25-25,25c-9.7,0-18.1-5.5-22.3-13.6h10.9c5.2,0,8.8-2.8,8.8-7.3
			c0-9.5-10.9-5.6-10.9-9c0-1.6,1.3-2.2,3.7-2.2h7.6c2.1,0,4.6,0.4,4.6,2.7v7.6c0,5.5,4.3,8.2,8.7,8.2c4.5,0,8.7-2.8,8.7-8.2
			L44.7,9.7L44.7,9.7z"/>
		<path class="st1" d="M25,0c5,0,9.9,1.5,14.1,4.3v24c0,1.7-1.4,3-3,3c-1.7,0-3-1.4-3-3v-7.2c0-5.7-2.9-8.1-6.7-8.1H14
			c-4.5,0-8.1,2.8-8.1,7.3c0,2.3,1,5.7,5.6,6.5c3.8,0.7,5.3,0.5,5.3,2.5c0,2-2.2,2-5.1,2H0.8C0.3,29.3,0,27.1,0,25
			C0,11.2,11.2,0,25,0z"/>
	</g>
</g>
</svg>
