<?xml version="1.0" encoding="utf-8"?>
<!-- Generator: Adobe Illustrator 24.3.0, SVG Export Plug-In . SVG Version: 6.00 Build 0)  -->
<svg version="1.1" id="Слой_1" xmlns="http://www.w3.org/2000/svg" xmlns:xlink="http://www.w3.org/1999/xlink" x="0px" y="0px"
	 viewBox="0 0 48 48" style="enable-background:new 0 0 48 48;" xml:space="preserve">
<style type="text/css">
	.st0{fill:#CD06FF;}
</style>
<path class="st0" d="M48,24c0,6.4-2.5,12.5-7,17c-4.5,4.5-10.6,7-17,7c-6.4,0-12.5-2.5-17-7c-4.5-4.5-7-10.6-7-17S2.5,11.5,7,7
	c4.5-4.5,10.6-7,17-7c6.4,0,12.5,2.5,17,7C45.5,11.5,48,17.6,48,24z M24.9,17.7c-2.3,1-7,3-14,6c-1.1,0.5-1.7,0.9-1.8,1.3
	c-0.1,0.7,0.8,1,2.1,1.4l0.5,0.2c1.2,0.4,2.9,0.9,3.7,0.9c0.8,0,1.6-0.3,2.6-1c6.5-4.4,9.9-6.6,10.1-6.7c0.1,0,0.4-0.1,0.5,0
	c0.1,0.1,0.1,0.4,0.1,0.4c-0.1,0.4-3.7,3.7-5.5,5.5c-0.6,0.5-1,0.9-1.1,1c-0.2,0.2-0.4,0.4-0.6,0.6c-1.1,1.1-2,1.9,0,3.3
	c1,0.6,1.8,1.2,2.5,1.7c0.9,0.6,1.7,1.2,2.8,1.9c0.3,0.2,0.5,0.4,0.8,0.6c1,0.7,1.9,1.3,3,1.2c0.6-0.1,1.3-0.7,1.6-2.5
	c0.8-4.3,2.4-13.5,2.7-17.3c0-0.3,0-0.6,0-0.9c0-0.3-0.2-0.5-0.3-0.7c-0.3-0.2-0.6-0.3-0.9-0.3C32.9,14.5,31.5,14.9,24.9,17.7z"/>
</svg>
